<svg width="60" height="60" viewBox="0 0 60 60" fill="none" xmlns="http://www.w3.org/2000/svg">
<path d="M30 56.25C44.4975 56.25 56.25 44.4975 56.25 30C56.25 15.5025 44.4975 3.75 30 3.75C15.5025 3.75 3.75 15.5025 3.75 30C3.75 44.4975 15.5025 56.25 30 56.25Z" fill="url(#paint0_linear_4308_491)"/>
<path d="M39.7757 38.028L40.9417 30.6189H33.6473V25.8131C33.6473 23.7857 34.6644 21.8083 37.9316 21.8083H41.25V15.5006C41.25 15.5006 38.2397 15 35.3631 15C29.3528 15 25.4282 18.5493 25.4282 24.972V30.6189H18.75V38.028H25.4282V55.9397C26.7688 56.145 28.1404 56.25 29.5376 56.25C30.9349 56.25 32.3066 56.145 33.6473 55.9397V38.028H39.7757Z" fill="white"/>
<defs>
<linearGradient id="paint0_linear_4308_491" x1="30" y1="3.75" x2="30" y2="56.0944" gradientUnits="userSpaceOnUse">
<stop stop-color="#18ACFE"/>
<stop offset="1" stop-color="#0163E0"/>
</linearGradient>
</defs>
</svg>
