<svg width="150" height="150" viewBox="0 0 150 150" fill="none" xmlns="http://www.w3.org/2000/svg">
<path d="M28.6438 108.256C22.2063 101.419 18.75 93.75 18.75 81.3188C18.75 59.4438 34.1062 39.8375 56.4375 30.1438L62.0187 38.7563C41.175 50.0313 37.1 64.6625 35.475 73.8875C38.8312 72.15 43.225 71.5438 47.5312 71.9438C58.8062 72.9875 67.6937 82.2438 67.6937 93.75C67.6937 99.5517 65.3891 105.116 61.2867 109.218C57.1843 113.32 51.6204 115.625 45.8187 115.625C42.6104 115.597 39.4396 114.931 36.491 113.666C33.5424 112.401 30.8749 110.562 28.6438 108.256ZM91.1437 108.256C84.7062 101.419 81.25 93.75 81.25 81.3188C81.25 59.4438 96.6062 39.8375 118.938 30.1438L124.519 38.7563C103.675 50.0313 99.6 64.6625 97.975 73.8875C101.331 72.15 105.725 71.5438 110.031 71.9438C121.306 72.9875 130.194 82.2438 130.194 93.75C130.194 99.5517 127.889 105.116 123.787 109.218C119.684 113.32 114.12 115.625 108.319 115.625C105.11 115.597 101.94 114.931 98.991 113.666C96.0424 112.401 93.3749 110.562 91.1437 108.256Z" fill="#BAB7B7"/>
</svg>
