<svg width="60" height="60" viewBox="0 0 60 60" fill="none" xmlns="http://www.w3.org/2000/svg">
<g clip-path="url(#clip0_4308_487)">
<path fill-rule="evenodd" clip-rule="evenodd" d="M60 10.9191C57.7954 11.9231 55.4217 12.602 52.9319 12.9054C55.4746 11.3453 57.4256 8.87144 58.3448 5.92453C55.9641 7.36909 53.3333 8.42 50.523 8.98338C48.2832 6.53123 45.0819 5 41.539 5C34.7456 5 29.234 10.6519 29.234 17.6219C29.234 18.6114 29.3397 19.5721 29.551 20.4966C19.3203 19.9693 10.2518 14.9494 4.17679 7.30408C3.11674 9.17479 2.51099 11.3453 2.51099 13.6566C2.51099 18.0336 4.68393 21.8978 7.98733 24.1622C5.97289 24.1008 4.07113 23.5265 2.40887 22.5876V22.7429C2.40887 28.8606 6.65257 33.9635 12.2874 35.1192C11.2555 35.4153 10.1673 35.5634 9.04385 35.5634C8.25145 35.5634 7.47666 35.4875 6.72653 35.3395C8.29371 40.3521 12.8367 44.0032 18.225 44.1007C14.013 47.4883 8.70223 49.507 2.93713 49.507C1.94399 49.507 0.961436 49.4492 0 49.3337C5.44814 52.909 11.9211 55 18.8695 55C41.5143 55 53.8933 35.7692 53.8933 19.0881C53.8933 18.5392 53.8827 17.9902 53.8616 17.4521C56.2669 15.6717 58.3553 13.4507 60 10.9191Z" fill="#00AAEC"/>
</g>
<defs>
<clipPath id="clip0_4308_487">
<rect width="60" height="60" fill="white"/>
</clipPath>
</defs>
</svg>
